<svg width="24.000000" height="24.000000" viewBox="0 0 24 24" fill="none" xmlns="http://www.w3.org/2000/svg" xmlns:xlink="http://www.w3.org/1999/xlink">
	<desc>
			Created with Pixso.
	</desc>
	<defs/>
	<rect id="Frame 4807" width="24.000000" height="24.000000" fill="#FFFFFF" fill-opacity="0"/>
	<path id="Union" d="M23 7L23 17C23 17.55 22.55 18 22 18L2 18C1.44 18 1 17.55 1 17L1 7C1 6.89 1.01 6.78 1.04 6.68L10.41 14.35C11.33 15.1 12.66 15.1 13.58 14.35L22.95 6.68C22.98 6.78 23 6.89 23 7ZM22.18 6.01L12.95 13.57C12.39 14.02 11.6 14.02 11.05 13.57L1.81 6.01C1.87 6 1.93 6 2 6L22 6C22.06 6 22.12 6 22.18 6.01ZM22 5C23.1 5 24 5.89 24 7L24 17C24 18.1 23.1 19 22 19L2 19C0.89 19 0 18.1 0 17L0 7C0 5.89 0.89 5 2 5L22 5Z" fill="#432EAB" fill-opacity="1.000000" fill-rule="evenodd"/>
</svg>
