<svg width="24.000000" height="24.000000" viewBox="0 0 24 24" fill="none" xmlns="http://www.w3.org/2000/svg" xmlns:xlink="http://www.w3.org/1999/xlink">
	<desc>
			Created with Pixso.
	</desc>
	<defs/>
	<rect id="Frame 4815" width="24.000000" height="24.000000" fill="#FFFFFF" fill-opacity="0"/>
	<path id="Union" d="M15.8 15.8C12.87 18.73 8.12 18.73 5.19 15.8C2.26 12.87 2.26 8.12 5.19 5.19C8.12 2.26 12.87 2.26 15.8 5.19C18.73 8.12 18.73 12.87 15.8 15.8ZM16.14 16.85C12.8 19.82 7.69 19.71 4.48 16.51C1.17 13.19 1.17 7.8 4.48 4.48C7.8 1.17 13.19 1.17 16.51 4.48C19.71 7.69 19.82 12.8 16.85 16.14L21.46 20.75C21.65 20.95 21.65 21.26 21.46 21.46C21.26 21.65 20.94 21.65 20.75 21.46L16.14 16.85Z" fill="#432EAB" fill-opacity="1.000000" fill-rule="evenodd"/>
</svg>
